<svg xmlns="http://www.w3.org/2000/svg" fill="none" viewBox="18.83 14.63 42.34 49.73">
<path d="M37.848 56.8267L42.992 62.7576C41.348 62.2875 39.682 61.9814 38.012 62.333C34.722 63.0262 31.87 65.3113 28.408 63.9307L37.848 56.8267Z" fill="#FAFAFA"/>
<path d="M33.778 47.0011L27.918 63.7135C22.192 60.9189 20.736 54.1051 25.634 49.7029C26.584 48.8477 27.718 48.19 28.726 47.402C30.234 46.2229 31.598 44.8305 32.944 43.4777C34.732 41.6804 36.198 39.498 39.002 39.2156C42.86 38.8265 44.314 40.8371 46.764 43.1577C47.1 43.4757 47.434 43.7976 47.768 44.1195L35.792 52.93L38.628 44.8918L33.776 47.003L33.778 47.0011Z" fill="#FAFAFA"/>
<path d="M51.726 63.8853C51.49 63.986 51.252 64.067 51.014 64.1302L41.876 54.1861L50.948 46.9517C53.348 48.822 55.922 50.3329 56.844 53.5126C58.086 57.7984 55.796 62.1532 51.726 63.8833V63.8853Z" fill="#FAFAFA"/>
<path d="M40.116 14.6387C40.304 14.5913 40.5 14.9626 40.578 15.0969C41.662 17.0166 41.616 19.355 42.038 21.4544C42.276 22.6375 42.752 22.7342 43.306 23.6368C44.324 25.2958 44.518 29.2043 44.076 31.0687C43.724 32.5579 41.978 36.0003 40.276 36.2215C37.918 36.5296 37.05 34.0273 36.522 32.2557C35.79 29.8028 35.822 25.0845 37.256 22.8804C37.78 22.0746 38.512 21.6223 38.75 20.6309C39.172 18.8672 39.362 16.6058 39.924 14.9231C39.956 14.8263 39.998 14.6683 40.114 14.6387H40.116Z" fill="#FAFAFA"/>
<path d="M31.094 17.3741C31.266 17.3484 31.242 17.6427 31.236 17.7493C31.148 19.7678 30.226 23.3564 31.302 25.1299C31.864 26.0542 32.392 26.3702 32.748 27.5434C33.32 29.4295 34.074 33.5316 33.946 35.4453C33.698 39.1386 30.72 40.9931 28.142 37.6198C26.358 35.2854 25.872 31.9555 26.356 29.1154C26.496 28.2938 26.82 27.5137 26.97 26.6961C27.456 24.0595 27.866 22.2662 29.216 19.8922C29.438 19.5012 30.762 17.4254 31.09 17.376L31.094 17.3741Z" fill="#FAFAFA"/>
<path d="M48.71 17.3128C49.056 17.297 49.81 18.4899 49.988 18.7862C51.032 20.5262 51.974 22.7737 52.368 24.7606C52.482 25.3412 52.494 26.0107 52.66 26.5677C52.812 27.0792 53.168 27.5256 53.388 28.0015C54.384 30.1523 54.238 33.5276 53.192 35.6487C52.198 37.6632 49.456 41.5441 47.184 38.6112C46.078 37.1833 46.104 35.1115 46.334 33.417C46.67 30.9324 47.362 28.4439 47.828 25.987C48.266 24.9324 48.898 24.9028 49.086 23.5045C49.366 21.4287 48.728 19.831 48.622 17.8658C48.616 17.7671 48.584 17.3207 48.71 17.3148V17.3128Z" fill="#FAFAFA"/>
<path d="M23.012 26.3347C23.144 26.3406 23.11 27.1543 23.1 27.2925C22.984 28.9496 22.556 30.5098 22.688 32.2399C22.828 34.0569 23.95 34.7758 24.702 36.3045C25.408 37.7423 27.164 41.2775 27.284 42.7193C27.498 45.2887 25.566 47.8088 22.824 46.5409C19.128 44.8325 18.266 40.7166 19.156 37.0767C19.9 34.0293 20.39 31.2228 21.754 28.3492C21.904 28.0351 22.71 26.3208 23.014 26.3347H23.012Z" fill="#FAFAFA"/>
<path d="M56.976 26.6902C57.158 26.6408 57.212 26.7534 57.312 26.862C58.148 27.7725 59.048 30.4229 59.426 31.6435C59.868 33.0773 60.006 34.3413 60.334 35.7534C60.938 38.3585 61.706 39.502 60.634 42.2966C59.668 44.8147 56.554 48.4843 53.722 46.0096C50.76 43.4204 53.716 39.6639 55.022 37.1616C55.326 36.581 55.546 35.9371 55.866 35.3742C56.298 34.6139 56.978 34.1418 57.214 33.2728C57.456 32.3861 57.418 30.9088 57.342 29.9785C57.28 29.2162 56.654 27.4288 56.832 26.8403C56.852 26.7751 56.914 26.7079 56.98 26.6902H56.976Z" fill="#FAFAFA"/>
</svg>