<svg id="Camada_1" xmlns="http://www.w3.org/2000/svg" version="1.1" viewBox="248.68 1596.58 3502.73 806.85">
  <!-- Generator: Adobe Illustrator 29.5.1, SVG Export Plug-In . SVG Version: 2.1.0 Build 141)  -->
  <defs>
    <style>
      .st0 {
        fill: 'currentColor';
        fill-rule: evenodd;
      }
    </style>
  </defs>
  <path class="st0" d="M3008.3,1596.6l-297.2,594.4h185.8l111.5-222.9h371.5l-111.4,222.9h185.7l297.2-594.4h-743ZM3082.6,1819.5l37.1-74.3h371.5l-37.1,74.3h-371.5ZM2187.5,1596.6l-297.2,594.4h185.7l222.9-445.8h92.9l-222.9,445.8h185.7l222.9-445.8h92.9l-222.9,445.8h185.7l297.2-594.4h-743ZM545.9,1596.6l-297.2,594.4h185.7l185.8-371.5,111.4-222.9h-185.7ZM2109.7,1596.6h-185.7l-222.9,445.8h-371.5l222.9-445.8h-185.7l-248.8,497.6-126.2-126.1h111.5l185.8-371.5h-185.8l-111.5,222.9h-371.5l557.2,557.3h222.9l-185.7-185.8h597.9l297.2-594.4ZM2942.8,2314.8l-7.5,22.8h15.1l-7.6-22.8ZM2942.8,2314.8l-7.5,22.8h15.1l-7.6-22.8ZM2513.9,2309.4h-7.8v15.3h7.8c5.9,0,8.3-3,8.3-7.6s-2.4-7.7-8.3-7.7ZM2942.8,2314.8l-7.5,22.8h15.1l-7.6-22.8ZM2942.8,2314.8l-7.5,22.8h15.1l-7.6-22.8ZM2513.9,2309.4h-7.8v15.3h7.8c5.9,0,8.3-3,8.3-7.6s-2.4-7.7-8.3-7.7ZM1870.3,2310.5c-10.2,0-16.2,7-16.2,18.1s6,18,16.2,18,16.2-7.1,16.2-18-6.1-18.1-16.2-18.1ZM2513.9,2309.4h-7.8v15.3h7.8c5.9,0,8.3-3,8.3-7.6s-2.4-7.7-8.3-7.7ZM2942.8,2314.8l-7.5,22.8h15.1l-7.6-22.8ZM2942.8,2314.8l-7.5,22.8h15.1l-7.6-22.8ZM2513.9,2309.4h-7.8v15.3h7.8c5.9,0,8.3-3,8.3-7.6s-2.4-7.7-8.3-7.7ZM1870.3,2310.5c-10.2,0-16.2,7-16.2,18.1s6,18,16.2,18,16.2-7.1,16.2-18-6.1-18.1-16.2-18.1ZM1376.7,2253.6l152.4,149.8h1819.2l74.9-149.8h-2046.4ZM1650.4,2364l-14-26h-2.1v26h-19.6v-70.4h30.9c17.5,0,26.3,10,26.3,22.6s-5,17.2-15.5,20.4l15.9,27.5h-21.9ZM1870.3,2364.7c-20,0-36.2-15-36.2-36.1s16.2-36.1,36.2-36.1,36.1,14.9,36.1,36.1-16.1,36.1-36.1,36.1ZM2112.5,2364h-41.4v-70.4h19.6v55.4h21.9v15ZM2321,2309.3h-25.5v11.5h22.5v14.9h-22.5v12.7h25.5v15.7h-45.1v-70.4h45.1v15.7ZM2515.8,2340.2h-9.7v23.8h-19.6v-70.4h29.3c17.5,0,26.4,9.9,26.4,23.5s-8.5,23.2-26.4,23.2ZM2747.4,2364h-41.4v-70.4h19.6v55.4h21.9v15ZM2959.1,2364l-3.8-11.5h-25l-3.8,11.5h-20.6l25.7-70.4h22.6l25.6,70.4h-20.7ZM3181.3,2341.6v22.4h-19.7v-22.4l-24.8-48h22.4l12.4,27.2,12.4-27.2h22.1l-24.8,48ZM2935.4,2337.5h15.1l-7.6-22.8-7.5,22.8ZM2513.9,2309.4h-7.8v15.3h7.8c5.9,0,8.3-3,8.3-7.6s-2.4-7.7-8.3-7.7ZM1870.3,2310.5c-10.2,0-16.2,7-16.2,18.1s6,18,16.2,18,16.2-7.1,16.2-18-6.1-18.1-16.2-18.1ZM1644,2310h-9.7v14.7h9.7c5.3,0,8-2.6,8-7.4s-2.7-7.3-8-7.3ZM2513.9,2309.4h-7.8v15.3h7.8c5.9,0,8.3-3,8.3-7.6s-2.4-7.7-8.3-7.7ZM2942.8,2314.8l-7.5,22.8h15.1l-7.6-22.8ZM2942.8,2314.8l-7.5,22.8h15.1l-7.6-22.8ZM2513.9,2309.4h-7.8v15.3h7.8c5.9,0,8.3-3,8.3-7.6s-2.4-7.7-8.3-7.7ZM2513.9,2309.4h-7.8v15.3h7.8c5.9,0,8.3-3,8.3-7.6s-2.4-7.7-8.3-7.7ZM2942.8,2314.8l-7.5,22.8h15.1l-7.6-22.8ZM2942.8,2314.8l-7.5,22.8h15.1l-7.6-22.8ZM2513.9,2309.4h-7.8v15.3h7.8c5.9,0,8.3-3,8.3-7.6s-2.4-7.7-8.3-7.7ZM2942.8,2314.8l-7.5,22.8h15.1l-7.6-22.8ZM2942.8,2314.8l-7.5,22.8h15.1l-7.6-22.8Z"/>
</svg>